# xmcd
#
# Track frame offsets:
#	150
#	14818
#	27946
#	42416
#	52291
#	65801
#	76754
#	90594
#	102109
#	115289
#	125904
#	136626
#
# Disc length: 2003 seconds
# Revision: 3
# Processed by: cddbd v1.5.2PL0 Copyright (c) Steve Scherf et al.
# Submitted via: dBpowerAMP V12.0
#
DISCID=a807d10c
DTITLE=Blues - the perfect blues collection 25 original albums (Sony 88697847832) - CD05 Chuck Willis 1958 Wails The Blues
DYEAR=2011
DGENRE=Blues
TTITLE0=My Story <C. Willis>
TTITLE1=I Feel So Bad <C. Willis>
TTITLE2=You're Still My Baby <C. Willis>
TTITLE3=Lawdy Miss Mary <C. Willis>
TTITLE4=Need One More Chance <C. Willis>
TTITLE5=Caldonia <F. Moore>
TTITLE6=Don't Deceive Me <C. Willis>
TTITLE7=One More Break <C. Willis>
TTITLE8=I Can Tell <C. Willis>
TTITLE9=Search My Heart <C. Willis>
TTITLE10=Love-Struck <C. Willis>
TTITLE11=Charged With Cheating <C. Willis>
EXTD=
EXTT0=
EXTT1=
EXTT2=
EXTT3=
EXTT4=
EXTT5=
EXTT6=
EXTT7=
EXTT8=
EXTT9=
EXTT10=
EXTT11=
PLAYORDER=
